<svg version="1.1" id="Layer_1" xmlns="http://www.w3.org/2000/svg" xmlns:xlink="http://www.w3.org/1999/xlink" x="0px" y="0px"
	 width="100%" viewBox="0 0 512 512" enable-background="new 0 0 512 512" xml:space="preserve">
<path fill="#000000" opacity="1.000000" stroke="none" 
	d="
M513.000000,178.000000 
	C513.000000,289.972778 513.000000,401.445557 513.000000,512.959167 
	C342.402222,512.959167 171.804413,512.959167 1.103307,512.959167 
	C1.103307,342.443909 1.103307,171.887756 1.103307,1.165792 
	C171.666534,1.165792 342.333252,1.165792 513.000000,1.165792 
	C513.000000,59.862217 513.000000,118.681107 513.000000,178.000000 
M59.108505,42.988762 
	C57.020912,43.323864 54.940365,43.713108 52.844650,43.985790 
	C28.509598,47.152103 11.027018,67.111519 9.181977,90.969978 
	C8.210070,103.537834 9.108842,116.250366 9.013129,129.837265 
	C9.008682,237.665115 8.993701,345.492981 9.042079,453.320801 
	C9.043835,457.235474 9.087791,461.306854 10.097164,465.038757 
	C16.434147,488.468201 35.107895,504.833130 59.503963,504.880157 
	C190.996994,505.133698 322.490784,505.008850 453.984283,504.956085 
	C457.728546,504.954590 461.622375,504.843384 465.192352,503.860443 
	C488.644684,497.403046 504.905304,478.547791 504.938660,453.861908 
	C505.082672,347.367371 505.001129,240.872482 504.993591,134.377716 
	C504.993469,132.548416 504.891968,130.719131 504.985992,127.982780 
	C504.661987,114.085800 505.421936,100.059120 503.777893,86.320091 
	C500.780334,61.269459 479.412048,44.056568 454.008667,42.000946 
	C453.661530,35.220993 453.949249,28.331663 452.804871,21.689058 
	C451.405365,13.565578 442.265961,7.951006 433.882874,9.032985 
	C425.243256,10.148073 419.072845,16.979532 419.004822,25.535585 
	C418.958435,31.366241 418.944672,37.197159 417.989777,43.003918 
	C390.018036,43.006878 362.046295,43.009838 334.019012,42.076565 
	C334.012268,38.410072 334.062317,34.742336 333.981934,31.077463 
	C333.909271,27.766106 334.336029,24.266405 333.417145,21.185400 
	C330.989380,13.045271 322.506348,7.875998 314.555969,9.070942 
	C305.769806,10.391506 299.253540,17.598482 299.026611,26.445795 
	C298.885620,31.942181 298.972137,37.444401 298.025726,42.991203 
	C270.364716,42.975456 242.703735,42.959705 215.009979,42.014893 
	C215.004578,36.685505 215.182983,31.348196 214.953781,26.028450 
	C214.535538,16.321648 206.158051,8.663043 196.432068,9.026507 
	C188.049973,9.339749 179.501480,15.935825 179.955383,26.528591 
	C180.190384,32.012802 179.950699,37.517353 178.997543,43.001610 
	C151.026260,43.010410 123.054970,43.019215 95.021996,42.090542 
	C95.014336,37.094563 94.716888,32.078724 95.057709,27.106630 
	C95.832115,15.809139 86.311218,9.034272 78.129395,8.998966 
	C67.937424,8.954987 60.079750,16.924856 60.005165,27.440889 
	C59.968548,32.603153 59.976379,37.765732 59.108505,42.988762 
z"/>
<path fill="#E1EBF0" opacity="1.000000" stroke="none" 
	d="
M504.837738,128.889832 
	C504.891968,130.719131 504.993469,132.548416 504.993591,134.377716 
	C505.001129,240.872482 505.082672,347.367371 504.938660,453.861908 
	C504.905304,478.547791 488.644684,497.403046 465.192352,503.860443 
	C461.622375,504.843384 457.728546,504.954590 453.984283,504.956085 
	C322.490784,505.008850 190.996994,505.133698 59.503963,504.880157 
	C35.107895,504.833130 16.434147,488.468201 10.097164,465.038757 
	C9.087791,461.306854 9.043835,457.235474 9.042079,453.320801 
	C8.993701,345.492981 9.008682,237.665115 9.544836,129.395874 
	C10.909216,128.969406 11.741889,128.997360 12.574561,128.997360 
	C175.163986,128.999420 337.753418,128.999786 500.342834,128.995102 
	C501.841125,128.995056 503.339447,128.926437 504.837738,128.889832 
M111.998932,319.467468 
	C112.638550,326.424194 112.922882,333.434967 113.972137,340.329346 
	C125.936821,418.945862 203.505478,474.017273 281.986511,459.719635 
	C360.883850,445.346100 412.571167,372.292023 400.045624,292.856628 
	C386.809418,208.914307 300.979858,153.829117 219.120453,176.739365 
	C154.484299,194.829300 111.919182,251.148529 111.998932,319.467468 
z"/>
<path fill="#F9415B" opacity="1.000000" stroke="none" 
	d="
M504.911865,128.436310 
	C503.339447,128.926437 501.841125,128.995056 500.342834,128.995102 
	C337.753418,128.999786 175.163986,128.999420 12.574561,128.997360 
	C11.741889,128.997360 10.909216,128.969406 9.619747,128.926025 
	C9.108842,116.250366 8.210070,103.537834 9.181977,90.969978 
	C11.027018,67.111519 28.509598,47.152103 52.844650,43.985790 
	C54.940365,43.713108 57.020912,43.323864 59.754063,43.323097 
	C60.550732,49.132244 60.741261,54.606319 60.844479,60.082039 
	C61.039024,70.402916 68.125160,77.846313 77.833763,77.865379 
	C87.289955,77.883949 94.713669,70.162788 94.919899,60.010391 
	C95.034859,54.350826 95.032936,48.688885 95.083679,43.028015 
	C123.054970,43.019215 151.026260,43.010410 179.520599,43.472931 
	C180.064774,48.769047 180.086212,53.593845 180.106995,58.418644 
	C180.156113,69.822762 187.041626,77.744011 197.085861,77.855713 
	C204.884277,77.942444 214.898743,71.848625 214.290207,58.754627 
	C214.046341,53.507397 214.763184,48.215511 215.042740,42.943954 
	C242.703735,42.959705 270.364716,42.975456 298.685547,43.342041 
	C299.497284,49.168224 299.680511,54.642914 299.794403,60.119049 
	C300.009460,70.460526 307.152771,77.937393 316.797791,77.867287 
	C326.328247,77.798019 333.659485,70.160973 333.878815,59.993500 
	C334.000916,54.334492 334.012939,48.673111 334.074585,43.012798 
	C362.046295,43.009838 390.018036,43.006878 418.501343,43.481941 
	C419.030426,48.785095 419.045990,53.610226 419.065826,58.435345 
	C419.112701,69.831863 426.091461,77.918510 436.051758,77.834557 
	C445.668121,77.753494 453.901978,70.079025 453.252319,58.711994 
	C452.953461,53.482677 453.740479,48.191296 454.035095,42.928059 
	C479.412048,44.056568 500.780334,61.269459 503.777893,86.320091 
	C505.421936,100.059120 504.661987,114.085800 504.911865,128.436310 
z"/>
<path fill="#323851" opacity="1.000000" stroke="none" 
	d="
M215.026367,42.479424 
	C214.763184,48.215511 214.046341,53.507397 214.290207,58.754627 
	C214.898743,71.848625 204.884277,77.942444 197.085861,77.855713 
	C187.041626,77.744011 180.156113,69.822762 180.106995,58.418644 
	C180.086212,53.593845 180.064774,48.769047 179.984558,43.478481 
	C179.950699,37.517353 180.190384,32.012802 179.955383,26.528591 
	C179.501480,15.935825 188.049973,9.339749 196.432068,9.026507 
	C206.158051,8.663043 214.535538,16.321648 214.953781,26.028450 
	C215.182983,31.348196 215.004578,36.685505 215.026367,42.479424 
z"/>
<path fill="#323851" opacity="1.000000" stroke="none" 
	d="
M334.046814,42.544682 
	C334.012939,48.673111 334.000916,54.334492 333.878815,59.993500 
	C333.659485,70.160973 326.328247,77.798019 316.797791,77.867287 
	C307.152771,77.937393 300.009460,70.460526 299.794403,60.119049 
	C299.680511,54.642914 299.497284,49.168224 299.150940,43.318443 
	C298.972137,37.444401 298.885620,31.942181 299.026611,26.445795 
	C299.253540,17.598482 305.769806,10.391506 314.555969,9.070942 
	C322.506348,7.875998 330.989380,13.045271 333.417145,21.185400 
	C334.336029,24.266405 333.909271,27.766106 333.981934,31.077463 
	C334.062317,34.742336 334.012268,38.410072 334.046814,42.544682 
z"/>
<path fill="#323851" opacity="1.000000" stroke="none" 
	d="
M95.052841,42.559280 
	C95.032936,48.688885 95.034859,54.350826 94.919899,60.010391 
	C94.713669,70.162788 87.289955,77.883949 77.833763,77.865379 
	C68.125160,77.846313 61.039024,70.402916 60.844479,60.082039 
	C60.741261,54.606319 60.550732,49.132244 60.181854,43.292801 
	C59.976379,37.765732 59.968548,32.603153 60.005165,27.440889 
	C60.079750,16.924856 67.937424,8.954987 78.129395,8.998966 
	C86.311218,9.034272 95.832115,15.809139 95.057709,27.106630 
	C94.716888,32.078724 95.014336,37.094563 95.052841,42.559280 
z"/>
<path fill="#323851" opacity="1.000000" stroke="none" 
	d="
M454.021881,42.464500 
	C453.740479,48.191296 452.953461,53.482677 453.252319,58.711994 
	C453.901978,70.079025 445.668121,77.753494 436.051758,77.834557 
	C426.091461,77.918510 419.112701,69.831863 419.065826,58.435345 
	C419.045990,53.610226 419.030426,48.785095 418.964600,43.493965 
	C418.944672,37.197159 418.958435,31.366241 419.004822,25.535585 
	C419.072845,16.979532 425.243256,10.148073 433.882874,9.032985 
	C442.265961,7.951006 451.405365,13.565578 452.804871,21.689058 
	C453.949249,28.331663 453.661530,35.220993 454.021881,42.464500 
z"/>
<path fill="#F9425B" opacity="1.000000" stroke="none" 
	d="
M111.996933,318.973999 
	C111.919182,251.148529 154.484299,194.829300 219.120453,176.739365 
	C300.979858,153.829117 386.809418,208.914307 400.045624,292.856628 
	C412.571167,372.292023 360.883850,445.346100 281.986511,459.719635 
	C203.505478,474.017273 125.936821,418.945862 113.972137,340.329346 
	C112.922882,333.434967 112.638550,326.424194 111.996933,318.973999 
M265.433594,393.619385 
	C267.099915,393.619324 268.766235,393.625366 270.432526,393.618256 
	C279.981384,393.577454 282.680786,390.913757 282.698730,381.461212 
	C282.715485,372.628937 282.702423,363.796570 282.702423,354.964264 
	C282.702423,350.869354 282.702393,346.774475 282.702393,342.236572 
	C285.246338,342.236572 287.046204,342.236938 288.846069,342.236511 
	C300.678040,342.233734 312.510559,342.299316 324.341705,342.199524 
	C330.430908,342.148163 333.742676,339.026733 333.831482,333.039001 
	C333.992096,322.209320 333.980194,311.374176 333.836182,300.544006 
	C333.753967,294.361450 330.342712,291.174164 323.998688,291.096863 
	C316.000763,290.999420 308.000824,291.071106 300.001740,291.070374 
	C294.387299,291.069824 288.772888,291.070221 282.702423,291.070221 
	C282.702423,288.685944 282.702545,286.891846 282.702423,285.097748 
	C282.701569,273.599091 282.760773,262.099976 282.678650,250.601898 
	C282.623962,242.944382 279.626099,240.002747 272.037201,239.971710 
	C262.038513,239.930786 252.039429,239.933578 242.040726,239.970718 
	C234.383606,239.999146 231.376755,242.896164 231.321579,250.513870 
	C231.237091,262.178589 231.298218,273.844360 231.297577,285.509674 
	C231.297470,287.256256 231.297577,289.002838 231.297577,291.073364 
	C217.040314,291.073364 203.564377,291.019409 190.089203,291.096954 
	C183.712250,291.133667 180.251816,294.320343 180.166153,300.446869 
	C180.014740,311.276825 180.017883,322.111786 180.162140,332.941925 
	C180.242371,338.965485 183.513367,342.143005 189.550598,342.196045 
	C201.548309,342.301483 213.547546,342.233215 225.546143,342.236542 
	C227.322128,342.237030 229.098129,342.236603 231.298523,342.236603 
	C231.298523,356.231049 231.247925,369.542450 231.318222,382.853210 
	C231.358047,390.390930 234.435699,393.490082 241.955475,393.594147 
	C249.453171,393.697937 256.953400,393.618225 265.433594,393.619385 
z"/>
<path fill="#FFFDFD" opacity="1.000000" stroke="none" 
	d="
M264.943054,393.619171 
	C256.953400,393.618225 249.453171,393.697937 241.955475,393.594147 
	C234.435699,393.490082 231.358047,390.390930 231.318222,382.853210 
	C231.247925,369.542450 231.298523,356.231049 231.298523,342.236603 
	C229.098129,342.236603 227.322128,342.237030 225.546143,342.236542 
	C213.547546,342.233215 201.548309,342.301483 189.550598,342.196045 
	C183.513367,342.143005 180.242371,338.965485 180.162140,332.941925 
	C180.017883,322.111786 180.014740,311.276825 180.166153,300.446869 
	C180.251816,294.320343 183.712250,291.133667 190.089203,291.096954 
	C203.564377,291.019409 217.040314,291.073364 231.297577,291.073364 
	C231.297577,289.002838 231.297470,287.256256 231.297577,285.509674 
	C231.298218,273.844360 231.237091,262.178589 231.321579,250.513870 
	C231.376755,242.896164 234.383606,239.999146 242.040726,239.970718 
	C252.039429,239.933578 262.038513,239.930786 272.037201,239.971710 
	C279.626099,240.002747 282.623962,242.944382 282.678650,250.601898 
	C282.760773,262.099976 282.701569,273.599091 282.702423,285.097748 
	C282.702545,286.891846 282.702423,288.685944 282.702423,291.070221 
	C288.772888,291.070221 294.387299,291.069824 300.001740,291.070374 
	C308.000824,291.071106 316.000763,290.999420 323.998688,291.096863 
	C330.342712,291.174164 333.753967,294.361450 333.836182,300.544006 
	C333.980194,311.374176 333.992096,322.209320 333.831482,333.039001 
	C333.742676,339.026733 330.430908,342.148163 324.341705,342.199524 
	C312.510559,342.299316 300.678040,342.233734 288.846069,342.236511 
	C287.046204,342.236938 285.246338,342.236572 282.702393,342.236572 
	C282.702393,346.774475 282.702423,350.869354 282.702423,354.964264 
	C282.702423,363.796570 282.715485,372.628937 282.698730,381.461212 
	C282.680786,390.913757 279.981384,393.577454 270.432526,393.618256 
	C268.766235,393.625366 267.099915,393.619324 264.943054,393.619171 
z"/>
</svg>